<svg xmlns="http://www.w3.org/2000/svg" width="2320" height="720" viewBox="0 0 2320 720">
  <defs>
    <pattern id="dots" width="42" height="42" patternUnits="userSpaceOnUse">
      <circle cx="8" cy="8" r="2" fill="#1c1813" opacity="0.08" />
    </pattern>
  </defs>
  <rect width="2320" height="720" fill="#f2e7ce" />
  <rect width="2320" height="720" fill="url(#dots)" />
  <rect x="0" y="0" width="310" height="720" fill="#e8430f" />
  <rect x="2010" y="0" width="310" height="720" fill="#f4b41a" />
  <path d="M310 92 H2010" stroke="#1c1813" stroke-width="12" />
  <path d="M310 626 H2010" stroke="#1c1813" stroke-width="6" />
  <text x="1160" y="333" text-anchor="middle" font-family="Arial Black, Arial, sans-serif" font-size="170" font-weight="900" letter-spacing="-8" fill="#1c1813">LOFIEVER</text>
  <text x="1160" y="418" text-anchor="middle" font-family="Arial, sans-serif" font-size="36" font-weight="700" letter-spacing="10" fill="#e8430f">TRANSMISSÃO DIÁRIA</text>
  <text x="1160" y="505" text-anchor="middle" font-family="Arial, sans-serif" font-size="30" font-weight="700" letter-spacing="4" fill="#625a4c">A MESMA PROGRAMAÇÃO, EM TODO LUGAR</text>
  <g fill="#1c1813" opacity="0.86">
    <rect x="936" y="548" width="14" height="28" /><rect x="964" y="532" width="14" height="44" />
    <rect x="992" y="516" width="14" height="60" /><rect x="1020" y="540" width="14" height="36" />
    <rect x="1048" y="504" width="14" height="72" /><rect x="1076" y="526" width="14" height="50" />
    <rect x="1104" y="492" width="14" height="84" /><rect x="1132" y="520" width="14" height="56" />
    <rect x="1160" y="500" width="14" height="76" /><rect x="1188" y="514" width="14" height="62" />
    <rect x="1216" y="488" width="14" height="88" /><rect x="1244" y="528" width="14" height="48" />
    <rect x="1272" y="508" width="14" height="68" /><rect x="1300" y="536" width="14" height="40" />
    <rect x="1328" y="518" width="14" height="58" /><rect x="1356" y="544" width="14" height="32" />
  </g>
</svg>
